<?xml version="1.0" encoding="UTF-8"?>
<svg width="600" height="480" version="1.1" viewBox="0 0 600 480" xmlns="http://www.w3.org/2000/svg">
 <g fill="#54ae49">
  <circle cx="313" cy="272" r="18"/>
  <circle cx="227" cy="320" r="23"/>
  <circle cx="232" cy="225" r="27"/>
  <circle cx="292" cy="296" r="7"/>
  <circle cx="269" cy="314" r="12"/>
  <circle cx="264" cy="275" r="18"/>
  <circle cx="226" cy="275" r="12"/>
  <circle cx="286" cy="235" r="18"/>
  <circle cx="321" cy="238" r="9"/>
 </g>
 <g fill="#439e77">
  <circle cx="173" cy="288" r="32"/>
  <circle cx="182" cy="173" r="28"/>
  <circle cx="282" cy="137" r="27"/>
  <circle cx="324" cy="190" r="33"/>
  <circle cx="414" cy="226" r="32"/>
  <circle cx="314" cy="327" r="28"/>
  <circle cx="373" cy="306" r="23"/>
  <circle cx="358" cy="258" r="23"/>
  <circle cx="410" cy="283" r="13"/>
  <circle cx="337" cy="369" r="12"/>
  <circle cx="267" cy="187" r="18"/>
  <circle cx="384" cy="174" r="23"/>
  <circle cx="230" cy="174" r="13"/>
  <circle cx="211" cy="136" r="12"/>
  <circle cx="163" cy="216" r="13"/>
  <circle cx="186" cy="238" r="12"/>
  <circle cx="125" cy="223" r="12"/>
  <circle cx="150" cy="243" r="9"/>
  <circle cx="138" cy="191" r="8"/>
  <circle cx="361" cy="223" r="8"/>
  <circle cx="337" cy="293" r="8"/>
  <circle cx="392" cy="267" r="7"/>
  <circle cx="435" cy="271" r="7"/>
  <circle cx="238" cy="144" r="8"/>
 </g>
 <g fill="#1f8d9f">
  <circle cx="105" cy="263" r="27"/>
  <circle cx="97" cy="189" r="23"/>
  <circle cx="170" cy="115" r="23"/>
  <circle cx="351" cy="120" r="33"/>
  <circle cx="467" cy="191" r="22"/>
  <circle cx="474" cy="240" r="23"/>
  <circle cx="364" cy="393" r="18"/>
  <circle cx="370" cy="351" r="18"/>
  <circle cx="421" cy="317" r="18"/>
  <circle cx="468" cy="138" r="18"/>
  <circle cx="417" cy="137" r="18"/>
  <circle cx="241" cy="100" r="18"/>
  <circle cx="90" cy="226" r="8"/>
  <circle cx="90" cy="153" r="8"/>
  <circle cx="131" cy="160" r="13"/>
  <circle cx="206" cy="103" r="8"/>
  <circle cx="277" cy="95" r="8"/>
  <circle cx="305" cy="92" r="9"/>
  <circle cx="401" cy="102" r="13"/>
  <circle cx="425" cy="176" r="13"/>
  <circle cx="448" cy="162" r="6"/>
  <circle cx="499" cy="159" r="14"/>
  <circle cx="503" cy="191" r="8"/>
  <circle cx="509" cy="220" r="10"/>
  <circle cx="517" cy="248" r="13"/>
  <circle cx="449" cy="294" r="13"/>
  <circle cx="470" cy="306" r="8"/>
  <circle cx="472" cy="276" r="8"/>
  <circle cx="397" cy="336" r="8"/>
  <circle cx="385" cy="425" r="13"/>
 </g>
 <g fill="#197eb9">
  <circle cx="110" cy="111" r="32"/>
  <circle cx="48" cy="220" r="27"/>
  <circle cx="54" cy="156" r="23"/>
  <circle cx="199" cy="64" r="27"/>
  <circle cx="269" cy="47" r="33"/>
  <circle cx="385" cy="57" r="27"/>
  <circle cx="451" cy="85" r="33"/>
  <circle cx="546" cy="184" r="33"/>
  <circle cx="509" cy="293" r="28"/>
  <circle cx="421" cy="377" r="34"/>
  <circle cx="423" cy="452" r="13"/>
  <circle cx="459" cy="333" r="18"/>
  <circle cx="499" cy="343" r="18"/>
  <circle cx="555" cy="247" r="18"/>
  <circle cx="508" cy="114" r="18"/>
  <circle cx="327" cy="61" r="18"/>
  <circle cx="147" cy="69" r="18"/>
  <circle cx="23" cy="182" r="8"/>
  <circle cx="60" cy="117" r="9"/>
  <circle cx="225" cy="30" r="8"/>
  <circle cx="315" cy="30" r="8"/>
  <circle cx="345" cy="33" r="8"/>
  <circle cx="537" cy="138" r="7"/>
  <circle cx="576" cy="223" r="7"/>
  <circle cx="475" cy="369" r="13"/>
  <circle cx="398" cy="448" r="8"/>
  <circle cx="415" cy="426" r="9"/>
 </g>
</svg>
